<?xml version="1.0" encoding="UTF-8" standalone="no"?>
<!-- Created with Inkscape (http://www.inkscape.org/) -->

<svg
   xmlns:dc="http://purl.org/dc/elements/1.1/"
   xmlns:cc="http://creativecommons.org/ns#"
   xmlns:rdf="http://www.w3.org/1999/02/22-rdf-syntax-ns#"
   xmlns:svg="http://www.w3.org/2000/svg"
   xmlns="http://www.w3.org/2000/svg"
   xmlns:sodipodi="http://sodipodi.sourceforge.net/DTD/sodipodi-0.dtd"
   xmlns:inkscape="http://www.inkscape.org/namespaces/inkscape"
   version="1.1"
   id="svg10"
   xml:space="preserve"
   width="701.77344"
   height="191.36082"
   viewBox="0 0 701.77344 191.36082"
   sodipodi:docname="horizontal_transp_pb.svg"
   inkscape:version="0.92.1 r15371"><metadata
     id="metadata16"><rdf:RDF><cc:Work
         rdf:about=""><dc:format>image/svg+xml</dc:format><dc:type
           rdf:resource="http://purl.org/dc/dcmitype/StillImage" /><dc:title /></cc:Work></rdf:RDF></metadata><defs
     id="defs14"><clipPath
       clipPathUnits="userSpaceOnUse"
       id="clipPath26"><path
         d="M 0,792 H 612 V 0 H 0 Z"
         id="path24"
         inkscape:connector-curvature="0" /></clipPath></defs><sodipodi:namedview
     pagecolor="#ffffff"
     bordercolor="#666666"
     borderopacity="1"
     objecttolerance="10"
     gridtolerance="10"
     guidetolerance="10"
     inkscape:pageopacity="0"
     inkscape:pageshadow="2"
     inkscape:window-width="1600"
     inkscape:window-height="838"
     id="namedview12"
     showgrid="false"
     showguides="true"
     inkscape:guide-bbox="true"
     inkscape:snap-bbox="true"
     inkscape:snap-bbox-edge-midpoints="true"
     inkscape:bbox-paths="true"
     inkscape:object-paths="true"
     inkscape:snap-smooth-nodes="true"
     inkscape:object-nodes="false"
     inkscape:zoom="1.2140152"
     inkscape:cx="366.8135"
     inkscape:cy="114.13134"
     inkscape:window-x="-8"
     inkscape:window-y="-8"
     inkscape:window-maximized="1"
     inkscape:current-layer="g18"
     fit-margin-top="0"
     fit-margin-left="0"
     fit-margin-right="0"
     fit-margin-bottom="0"><sodipodi:guide
       position="145.92698,164.537"
       orientation="0,1"
       id="guide3998"
       inkscape:locked="false" /><sodipodi:guide
       position="27.031706,135.31322"
       orientation="1,0"
       id="guide4000"
       inkscape:locked="false" /><sodipodi:guide
       position="402.78876,26.823816"
       orientation="0,1"
       id="guide4002"
       inkscape:locked="false" /><sodipodi:guide
       position="674.74177,32.445366"
       orientation="1,0"
       id="guide4004"
       inkscape:locked="false" /><sodipodi:guide
       position="-1.5085449e-006,119.75894"
       orientation="1,0"
       id="guide4817"
       inkscape:locked="false" /><sodipodi:guide
       position="701.77342,-31.884183"
       orientation="1,0"
       id="guide4819"
       inkscape:locked="false" /><sodipodi:guide
       position="724.0116,-1.3530273e-005"
       orientation="0,1"
       id="guide4821"
       inkscape:locked="false" /><sodipodi:guide
       position="13.396419,191.36082"
       orientation="0,1"
       id="guide4823"
       inkscape:locked="false" /></sodipodi:namedview><g
     inkscape:groupmode="layer"
     id="layer1"
     inkscape:label="back"
     transform="translate(-59.096478,-479.87393)"
     style="opacity:1"><rect
       style="fill:#000000;fill-opacity:1;stroke:none;paint-order:markers fill stroke"
       id="rect4826"
       width="701.77344"
       height="191.36082"
       x="59.096478"
       y="479.87393" /></g><g
     id="g18"
     inkscape:label="logo_horiz"
     transform="matrix(1.3333333,0,0,-1.3333333,-59.096478,576.12607)"
     inkscape:groupmode="layer"><g
       id="g20"
       style="fill:#ffffff"><g
         id="g22"
         clip-path="url(#clipPath26)"
         style="fill:#ffffff"><g
           id="g28"
           transform="translate(161.01,338.7572)"
           style="fill:#ffffff"><path
             d="m 0,0 c -0.916,0 -1.657,-0.743 -1.657,-1.658 v -5.303 c 0,-0.915 0.741,-1.658 1.657,-1.658 0.916,0 1.658,0.743 1.658,1.658 v 5.303 C 1.658,-0.743 0.916,0 0,0"
             style="fill:#ffffff;fill-opacity:1;fill-rule:nonzero;stroke:none"
             id="path30"
             inkscape:connector-curvature="0" /></g><g
           id="g32"
           transform="translate(141.2629,368.5865)"
           style="fill:#ffffff"><path
             d="m 0,0 c -0.916,0 -1.657,-0.742 -1.657,-1.657 v -7.684 c 0,-0.916 0.741,-1.657 1.657,-1.657 0.914,0 1.657,0.741 1.657,1.657 v 7.684 C 1.657,-0.742 0.914,0 0,0"
             style="fill:#ffffff;fill-opacity:1;fill-rule:nonzero;stroke:none"
             id="path34"
             inkscape:connector-curvature="0" /></g><g
           id="g36"
           transform="translate(153.3057,338.4772)"
           style="fill:#ffffff"><path
             d="m 0,0 c -0.916,0 -1.659,-0.743 -1.659,-1.657 v -1.824 c 0,-0.915 0.743,-1.657 1.659,-1.657 0.914,0 1.657,0.742 1.657,1.657 v 1.824 C 1.657,-0.743 0.914,0 0,0"
             style="fill:#ffffff;fill-opacity:1;fill-rule:nonzero;stroke:none"
             id="path38"
             inkscape:connector-curvature="0" /></g><g
           id="g40"
           transform="translate(162.6669,360.0777)"
           style="fill:#ffffff"><path
             d="M 0,0 C 0,0.916 -0.741,1.657 -1.657,1.657 -2.573,1.657 -3.314,0.916 -3.314,0 v -15.909 c 0,-0.916 0.741,-1.657 1.657,-1.657 0.916,0 1.657,0.741 1.657,1.657 z"
             style="fill:#ffffff;fill-opacity:1;fill-rule:nonzero;stroke:none"
             id="path42"
             inkscape:connector-curvature="0" /></g><g
           id="g44"
           transform="translate(162.6669,372.4507)"
           style="fill:#ffffff"><path
             d="M 0,0 C 0,0.916 -0.741,1.657 -1.657,1.657 -2.573,1.657 -3.314,0.916 -3.314,0 v -5.303 c 0,-0.914 0.741,-1.656 1.657,-1.656 0.916,0 1.657,0.742 1.657,1.656 z"
             style="fill:#ffffff;fill-opacity:1;fill-rule:nonzero;stroke:none"
             id="path46"
             inkscape:connector-curvature="0" /></g><g
           id="g48"
           transform="translate(154.9627,364.9101)"
           style="fill:#ffffff"><path
             d="M 0,0 C 0,0.916 -0.743,1.657 -1.657,1.657 -2.574,1.657 -3.316,0.916 -3.316,0 v -5.303 c 0,-0.914 0.742,-1.656 1.659,-1.656 0.914,0 1.657,0.742 1.657,1.656 z"
             style="fill:#ffffff;fill-opacity:1;fill-rule:nonzero;stroke:none"
             id="path50"
             inkscape:connector-curvature="0" /></g><g
           id="g52"
           transform="translate(132.4825,365.2296)"
           style="fill:#ffffff"><path
             d="M 0,0 C 0,0.74 -0.743,1.338 -1.657,1.338 -2.573,1.338 -3.316,0.74 -3.316,0 v -4.283 c 0,-0.74 0.743,-1.339 1.659,-1.339 0.914,0 1.657,0.599 1.657,1.339 z"
             style="fill:#ffffff;fill-opacity:1;fill-rule:nonzero;stroke:none"
             id="path54"
             inkscape:connector-curvature="0" /></g><g
           id="g56"
           transform="translate(66.003,365.0148)"
           style="fill:#ffffff"><path
             d="m 0,0 h 24.507 c 4.282,0 7.757,3.216 7.757,7.163 0,3.947 -3.475,7.162 -7.757,7.162 -4.281,0 -7.756,-3.215 -7.756,-7.162 0,-0.888 0.727,-1.604 1.629,-1.604 0.903,0 1.629,0.716 1.629,1.604 0,2.178 2.023,3.954 4.498,3.954 2.477,0 4.498,-1.769 4.498,-3.954 0,-2.179 -2.021,-3.955 -4.498,-3.955 L 0,3.208 C -0.902,3.208 -1.63,2.493 -1.63,1.604 -1.63,0.715 -0.902,0 0,0"
             style="fill:#ffffff;fill-opacity:1;fill-rule:nonzero;stroke:none"
             id="path58"
             inkscape:connector-curvature="0" /></g><g
           id="g60"
           transform="translate(90.5102,355.1398)"
           style="fill:#ffffff"><path
             d="m 0,0 h -24.507 c -0.902,0 -1.63,-0.715 -1.63,-1.604 0,-0.889 0.728,-1.605 1.63,-1.605 H 0 c 2.477,0 4.498,-1.776 4.498,-3.954 0,-2.178 -2.021,-3.954 -4.498,-3.954 -0.902,0 -1.63,-0.716 -1.63,-1.605 0,-0.888 0.728,-1.604 1.63,-1.604 4.282,0 7.757,3.216 7.757,7.163 C 7.765,-3.216 4.282,0 0,0"
             style="fill:#ffffff;fill-opacity:1;fill-rule:nonzero;stroke:none"
             id="path62"
             inkscape:connector-curvature="0" /></g><g
           id="g64"
           transform="translate(101.8862,366.265)"
           style="fill:#ffffff"><path
             d="m 0,0 c -0.904,0 -1.63,-0.715 -1.63,-1.603 0,-1.794 -1.885,-3.248 -4.203,-3.248 h -30.05 c -0.902,0 -1.63,-0.715 -1.63,-1.604 0,-0.889 0.728,-1.604 1.63,-1.604 h 30.05 c 4.115,0 7.463,2.893 7.463,6.456 C 1.63,-0.715 0.902,0 0,0"
             style="fill:#ffffff;fill-opacity:1;fill-rule:nonzero;stroke:none"
             id="path66"
             inkscape:connector-curvature="0" /></g><g
           id="g68"
           transform="translate(192.044,387.8836)"
           style="fill:#ffffff"><path
             d="M 0,0 C 0,-1.109 0.9,-2.009 2.009,-2.009 H 2.03 c 5.303,-0.046 8.993,3.275 8.993,11.068 0,6.457 -3.136,9.962 -8.439,9.962 -0.228,0 -0.444,-0.003 -0.645,-0.01 C 0.856,18.977 0,18.085 0,17.003 Z m -6.732,21.905 c 0,1.01 0.748,1.868 1.75,1.993 1.976,0.246 4.315,0.38 6.735,0.38 5.303,0 8.809,-1.015 11.484,-3.182 3.043,-2.399 4.888,-6.272 4.888,-11.945 0,-6.086 -1.983,-10.283 -4.888,-12.774 C 10.285,-6.16 5.904,-7.358 0.37,-7.358 c -2.095,0 -3.86,0.102 -5.269,0.226 -1.038,0.09 -1.833,0.959 -1.833,2.001 z"
             style="fill:#ffffff;fill-opacity:1;fill-rule:nonzero;stroke:none"
             id="path70"
             inkscape:connector-curvature="0" /></g><g
           id="g72"
           transform="translate(234.7353,383.284)"
           style="fill:#ffffff"><path
             d="m 0,0 c 0.179,-1.046 -0.485,-2.048 -1.519,-2.294 -1.326,-0.317 -3.11,-0.557 -5.155,-0.557 -9.915,0 -14.941,6.687 -14.941,15.496 0,10.93 7.286,16.417 15.634,16.417 1.912,0 3.515,-0.226 4.725,-0.526 1.083,-0.267 1.749,-1.351 1.483,-2.433 L -0.151,24.56 c -0.264,-1.075 -1.345,-1.735 -2.42,-1.473 -0.872,0.212 -1.889,0.348 -3.04,0.348 -4.935,0 -8.902,-3.273 -8.902,-10.376 0,-6.594 3.413,-10.191 8.902,-10.191 1.002,0 2.061,0.114 3.01,0.296 1.098,0.209 2.152,-0.535 2.34,-1.638 z"
             style="fill:#ffffff;fill-opacity:1;fill-rule:nonzero;stroke:none"
             id="path74"
             inkscape:connector-curvature="0" /></g><g
           id="g76"
           transform="translate(250.8031,393.6225)"
           style="fill:#ffffff"><path
             d="M 0,0 C 1.308,0 2.268,1.231 1.948,2.5 L 0.917,6.594 C 0.456,8.44 -0.052,11.022 -0.467,12.913 H -0.606 C -1.02,11.022 -1.481,8.393 -1.896,6.594 L -2.927,2.5 C -3.246,1.231 -2.288,0 -0.979,0 Z m -4.861,-6.592 -1.174,-4.663 c -0.223,-0.894 -1.026,-1.52 -1.948,-1.52 h -2.612 c -1.33,0 -2.293,1.268 -1.935,2.549 l 7.55,27.066 c 0.242,0.868 1.033,1.468 1.934,1.468 h 5.523 c 0.905,0 1.696,-0.603 1.937,-1.475 l 7.468,-27.064 c 0.354,-1.28 -0.609,-2.544 -1.935,-2.544 H 7.069 c -0.908,0 -1.705,0.61 -1.941,1.487 l -1.274,4.729 c -0.236,0.877 -1.033,1.486 -1.941,1.486 h -4.826 c -0.92,0 -1.723,-0.626 -1.948,-1.519"
             style="fill:#ffffff;fill-opacity:1;fill-rule:nonzero;stroke:none"
             id="path78"
             inkscape:connector-curvature="0" /></g><g
           id="g80"
           transform="translate(286.4794,383.284)"
           style="fill:#ffffff"><path
             d="m 0,0 c 0.178,-1.046 -0.486,-2.048 -1.519,-2.294 -1.328,-0.317 -3.112,-0.556 -5.155,-0.556 -9.915,0 -14.942,6.686 -14.942,15.495 0,10.93 7.287,16.417 15.635,16.417 1.91,0 3.514,-0.226 4.725,-0.526 1.081,-0.267 1.748,-1.351 1.483,-2.433 l -0.38,-1.543 c -0.264,-1.074 -1.345,-1.736 -2.418,-1.473 -0.874,0.212 -1.89,0.349 -3.042,0.349 -4.935,0 -8.9,-3.274 -8.9,-10.377 0,-6.594 3.411,-10.191 8.9,-10.191 1.002,0 2.061,0.114 3.012,0.296 1.098,0.209 2.151,-0.537 2.34,-1.638 z"
             style="fill:#ffffff;fill-opacity:1;fill-rule:nonzero;stroke:none"
             id="path82"
             inkscape:connector-curvature="0" /></g><g
           id="g84"
           transform="translate(157.6991,382.7703)"
           style="fill:#ffffff"><path
             d="m 0,0 h -2.776 c -0.005,0 -0.008,0.002 -0.011,0.008 -1.391,2.621 -4.012,4.472 -7.098,4.629 -0.005,0.002 -0.01,0.005 -0.011,0.01 -0.62,2.467 -2.008,4.472 -3.857,5.861 -0.003,0.003 -0.006,0.008 -0.005,0.013 0.312,2.779 2.784,5.094 5.719,5.094 2.937,0 5.411,-2.319 5.72,-5.256 l 0.154,-1.38 c 0,-0.006 0.006,-0.012 0.012,-0.012 H -0.14 C 2.53,8.967 4.683,6.78 4.469,4.119 4.283,1.815 2.351,0 0,0 m -10.203,-9.275 h -18.45 c -2.111,0 -3.911,1.646 -3.966,3.755 -0.058,2.212 1.657,3.969 3.854,3.974 0.005,0 0.009,-0.003 0.012,-0.008 0.463,-1.231 1.385,-2.46 2.46,-3.385 0.006,-0.004 0.014,-0.004 0.019,0.001 l 2.148,2.301 c 0.005,0.005 0.005,0.013 0,0.018 -1.386,1.39 -2.156,3.087 -2.156,5.093 -0.156,3.71 2.936,6.802 6.801,6.802 3.556,0 6.648,-2.783 6.958,-6.338 l 0.153,-1.38 c 0.002,-0.006 0.006,-0.012 0.014,-0.012 h 1.975 c 2.549,0 4.85,-1.693 5.441,-4.172 0.822,-3.446 -1.921,-6.649 -5.263,-6.649 m 10.821,21.18 c -0.928,3.865 -4.329,6.648 -8.503,6.648 -4.169,0 -7.568,-2.777 -8.499,-6.635 -0.002,-0.008 -0.01,-0.012 -0.017,-0.009 -0.924,0.306 -2.002,0.459 -3.08,0.459 -5.564,0 -10.049,-4.483 -10.049,-10.049 V 1.558 c 0,-0.006 -0.005,-0.013 -0.011,-0.013 -3.564,-0.316 -6.193,-3.43 -6.171,-7.001 0.023,-3.849 3.258,-6.912 7.109,-6.912 h 18.386 c 4.684,0 8.516,3.832 8.516,8.516 v 0.747 c 0,0.007 0.006,0.013 0.013,0.013 h 1.842 c 4.175,0 7.575,3.402 7.575,7.575 -0.154,3.866 -3.246,7.113 -7.111,7.422"
             style="fill:#ffffff;fill-opacity:1;fill-rule:nonzero;stroke:none"
             id="path86"
             inkscape:connector-curvature="0" /></g><g
           id="g88"
           transform="translate(77.0624,381.6184)"
           style="fill:#ffffff"><path
             d="m 0,0 c -4.913,0 -8.906,3.786 -8.906,8.441 0,4.654 3.993,8.44 8.906,8.44 0.494,0 0.979,-0.039 1.449,-0.113 C 1.86,16.704 2.035,16.244 1.77,15.94 -0.005,13.9 -1.073,11.288 -1.073,8.441 -1.073,5.593 -0.005,2.982 1.77,0.939 2.035,0.636 1.86,0.178 1.449,0.113 0.977,0.039 0.494,0 0,0 m 5.696,1.958 c -1.96,1.549 -3.21,3.88 -3.21,6.483 0,2.602 1.25,4.933 3.21,6.483 0.749,0.592 1.602,1.069 2.529,1.404 0.365,0.132 0.46,0.586 0.17,0.836 -0.809,0.701 -1.715,1.3 -2.699,1.781 C 3.755,19.894 1.52,20.378 -0.845,20.228 -7.172,19.829 -12.23,14.879 -12.458,8.874 -12.713,2.16 -7.031,-3.374 0,-3.374 c 2.052,0 3.988,0.475 5.696,1.309 0.984,0.482 1.89,1.082 2.699,1.782 0.29,0.248 0.195,0.704 -0.17,0.836 -0.927,0.335 -1.78,0.812 -2.529,1.405"
             style="fill:#ffffff;fill-opacity:1;fill-rule:nonzero;stroke:none"
             id="path90"
             inkscape:connector-curvature="0" /></g><g
           id="g92"
           transform="translate(89.5181,329.4778)"
           style="fill:#ffffff"><path
             d="M 0,0 C -1.391,0.771 -2.858,1.585 -4.399,2.384 -1.216,3.712 3.775,5.447 9.814,6.05 18.201,6.888 26.412,5.382 34.283,1.574 26.953,0.311 19.164,-2.055 11.621,-4.707 8.349,-4.629 4.475,-2.481 0,0 m -2.778,-13.651 c 14.776,5.738 33.166,12.881 47.346,12.881 17.249,0 28.611,-8.424 28.723,-8.508 0.723,-0.547 1.75,-0.4 2.293,0.334 0.543,0.73 0.396,1.769 -0.328,2.318 C 74.843,-6.315 65.327,0.002 53.195,1.888 47.939,2.707 43.303,2.837 39.435,2.576 29.902,8.102 19.832,10.382 9.492,9.348 0.922,8.493 -5.622,5.523 -8.303,4.27 c -4.527,2.009 -9.615,3.576 -15.276,3.576 -0.904,0 -1.638,-0.741 -1.638,-1.657 0,-0.914 0.734,-1.657 1.638,-1.657 8.591,0 15.717,-3.952 22.005,-7.439 2.7,-1.497 5.2,-2.882 7.588,-3.834 -3.438,-1.28 -6.778,-2.6 -9.967,-3.816 -6.236,-2.378 -12.652,-5.706 -19.626,-6.343 -0.901,-0.081 -1.638,-0.742 -1.638,-1.656 0,-0.916 0.734,-1.658 1.638,-1.658 5.77,0 17.741,5.375 20.801,6.563"
             style="fill:#ffffff;fill-opacity:1;fill-rule:nonzero;stroke:none"
             id="path94"
             inkscape:connector-curvature="0" /></g><g
           id="g96"
           transform="translate(137.5141,309.2636)"
           style="fill:#ffffff"><path
             d="m 0,0 h 25.484 c 0.938,0 1.694,0.716 1.694,1.604 0,0.888 -0.756,1.604 -1.694,1.604 H 0 c -2.575,0 -4.677,1.777 -4.677,3.956 0,2.177 2.102,3.953 4.677,3.953 0.938,0 1.695,0.716 1.695,1.605 0,0.889 -0.757,1.604 -1.695,1.604 -4.453,0 -8.066,-3.215 -8.066,-7.162 C -8.074,3.216 -4.453,0 0,0"
             style="fill:#ffffff;fill-opacity:1;fill-rule:nonzero;stroke:none"
             id="path98"
             inkscape:connector-curvature="0" /></g><g
           id="g100"
           transform="translate(126.0858,317.3235)"
           style="fill:#ffffff"><path
             d="m 0,0 c -0.919,0 -1.658,-0.716 -1.658,-1.605 0,-1.792 -1.918,-3.246 -4.276,-3.246 h -54.36 c -0.918,0 -1.659,-0.716 -1.659,-1.605 0,-0.888 0.741,-1.604 1.659,-1.604 h 54.36 c 4.186,0 7.592,2.894 7.592,6.455 C 1.658,-0.716 0.918,0 0,0"
             style="fill:#ffffff;fill-opacity:1;fill-rule:nonzero;stroke:none"
             id="path102"
             inkscape:connector-curvature="0" /></g><g
           id="g104"
           transform="translate(163.2378,403.9177)"
           style="fill:#ffffff"><path
             d="m 0,0 c 0.94,0 1.695,0.716 1.695,1.604 0,3.562 -3.48,6.455 -7.758,6.455 h -18.464 c -0.939,0 -1.694,-0.715 -1.694,-1.604 0,-0.889 0.755,-1.604 1.694,-1.604 h 18.464 c 2.408,0 4.368,-1.454 4.368,-3.247 C -1.695,0.716 -0.938,0 0,0"
             style="fill:#ffffff;fill-opacity:1;fill-rule:nonzero;stroke:none"
             id="path106"
             inkscape:connector-curvature="0" /></g><g
           id="g108"
           transform="translate(66.1421,403.9177)"
           style="fill:#ffffff"><path
             d="m 0,0 c 0.938,0 1.695,0.716 1.695,1.604 0,1.793 1.96,3.247 4.368,3.247 H 23.59 c 0.94,0 1.695,0.715 1.695,1.604 0,0.889 -0.755,1.604 -1.695,1.604 H 6.063 C 1.785,8.059 -1.695,5.166 -1.695,1.604 -1.695,0.716 -0.938,0 0,0"
             style="fill:#ffffff;fill-opacity:1;fill-rule:nonzero;stroke:none"
             id="path110"
             inkscape:connector-curvature="0" /></g><g
           id="g112"
           transform="translate(98.031,398.9216)"
           style="fill:#ffffff"><path
             d="m 0,0 c 0,1.124 -0.922,2.028 -2.049,2.028 h -4.107 c -1.128,0 -2.05,-0.904 -2.05,-2.028 0,-1.124 0.922,-2.028 2.05,-2.028 h 4.107 C -0.922,-2.028 0,-1.124 0,0"
             style="fill:#ffffff;fill-opacity:1;fill-rule:evenodd;stroke:none"
             id="path114"
             inkscape:connector-curvature="0" /></g><g
           id="g116"
           transform="translate(100.0802,387.4155)"
           style="fill:#ffffff"><path
             d="m 0,0 c -0.568,0 -1.081,-0.225 -1.45,-0.593 l -2.736,-2.704 c -0.367,-0.37 -0.602,-0.879 -0.602,-1.442 0,-1.116 0.922,-2.027 2.05,-2.027 0.566,0 1.081,0.232 1.449,0.594 L 1.45,-3.463 C 1.822,-3.099 2.049,-2.59 2.049,-2.028 2.049,-0.905 1.135,0 0,0"
             style="fill:#ffffff;fill-opacity:1;fill-rule:evenodd;stroke:none"
             id="path118"
             inkscape:connector-curvature="0" /></g><g
           id="g120"
           transform="translate(113.7536,414.4843)"
           style="fill:#ffffff"><path
             d="M 0,0 C 1.134,0 2.049,0.911 2.049,2.028 V 6.093 C 2.049,7.209 1.134,8.121 0,8.121 -1.135,8.121 -2.051,7.209 -2.051,6.093 V 2.028 C -2.051,0.911 -1.135,0 0,0"
             style="fill:#ffffff;fill-opacity:1;fill-rule:evenodd;stroke:none"
             id="path122"
             inkscape:connector-curvature="0" /></g><g
           id="g124"
           transform="translate(127.4255,410.4276)"
           style="fill:#ffffff"><path
             d="m 0,0 c 0.567,0 1.083,0.224 1.45,0.593 l 2.736,2.704 c 0.369,0.369 0.602,0.879 0.602,1.441 0,1.116 -0.922,2.028 -2.049,2.028 -0.567,0 -1.083,-0.231 -1.456,-0.595 L -1.448,3.462 C -1.82,3.098 -2.049,2.59 -2.049,2.028 -2.049,0.904 -1.134,0 0,0"
             style="fill:#ffffff;fill-opacity:1;fill-rule:evenodd;stroke:none"
             id="path126"
             inkscape:connector-curvature="0" /></g><g
           id="g128"
           transform="translate(98.6303,411.0209)"
           style="fill:#ffffff"><path
             d="m 0,0 c 0.369,-0.369 0.882,-0.593 1.45,-0.593 1.135,0 2.049,0.905 2.049,2.028 0,0.562 -0.227,1.071 -0.601,1.434 L 0.169,5.578 c -0.376,0.363 -0.889,0.595 -1.457,0.595 -1.128,0 -2.049,-0.912 -2.049,-2.028 0,-0.562 0.234,-1.072 0.601,-1.435 z"
             style="fill:#ffffff;fill-opacity:1;fill-rule:evenodd;stroke:none"
             id="path130"
             inkscape:connector-curvature="0" /></g><g
           id="g132"
           transform="translate(135.6318,400.95)"
           style="fill:#ffffff"><path
             d="m 0,0 h -4.108 c -1.127,0 -2.048,-0.905 -2.048,-2.028 0,-1.124 0.921,-2.029 2.048,-2.029 H 0 c 1.129,0 2.049,0.905 2.049,2.029 C 2.049,-0.905 1.129,0 0,0"
             style="fill:#ffffff;fill-opacity:1;fill-rule:evenodd;stroke:none"
             id="path134"
             inkscape:connector-curvature="0" /></g><g
           id="g136"
           transform="translate(113.7536,383.3589)"
           style="fill:#ffffff"><path
             d="m 0,0 c -1.135,0 -2.051,-0.912 -2.051,-2.028 v -4.065 c 0,-1.117 0.916,-2.028 2.051,-2.028 1.134,0 2.049,0.911 2.049,2.028 v 4.065 C 2.049,-0.912 1.134,0 0,0"
             style="fill:#ffffff;fill-opacity:1;fill-rule:evenodd;stroke:none"
             id="path138"
             inkscape:connector-curvature="0" /></g><g
           id="g140"
           transform="translate(113.7536,388.7712)"
           style="fill:#ffffff"><path
             d="m 0,0 c -5.656,0 -10.255,4.553 -10.255,10.15 0,5.598 4.599,10.152 10.255,10.152 5.655,0 10.254,-4.554 10.254,-10.152 C 10.254,4.553 5.655,0 0,0 m 0,24.358 c -7.919,0 -14.354,-6.37 -14.354,-14.208 0,-7.838 6.435,-14.207 14.354,-14.207 7.917,0 14.352,6.369 14.352,14.207 0,7.838 -6.435,14.208 -14.352,14.208"
             style="fill:#ffffff;fill-opacity:1;fill-rule:evenodd;stroke:none"
             id="path142"
             inkscape:connector-curvature="0" /></g><g
           id="g144"
           transform="translate(123.5465,352.9808)"
           style="fill:#ffffff"><path
             d="m 0,0 c -0.076,-0.097 -0.087,-0.233 -0.029,-0.34 0.058,-0.108 0.175,-0.168 0.29,-0.151 4.521,0.689 9.311,-0.037 12.064,-3.012 0.277,-0.299 -0.014,-0.798 -0.384,-0.654 -0.709,0.273 -1.466,0.437 -2.252,0.472 -3.851,0.164 -7.187,-2.705 -7.85,-6.715 -0.019,-0.124 0.034,-0.248 0.135,-0.313 0.102,-0.066 0.237,-0.066 0.322,0.024 4.096,4.332 11.985,1.091 12.88,0.466 0.097,-0.067 0.149,-0.188 0.138,-0.311 L 13.37,-23.328 c -0.011,-0.035 -0.019,-0.071 -0.019,-0.112 0,-0.165 0.127,-0.302 0.283,-0.302 h 0.011 l 7.702,-0.743 c 0.088,0 0.167,0.041 0.22,0.109 0.055,0.067 0.079,0.16 0.062,0.248 l -3.461,13.374 c -0.034,0.193 0.057,0.452 0.2,0.574 3.55,3.07 12.3,-1.984 13.333,-3.306 0.056,-0.071 0.137,-0.11 0.221,-0.11 0.03,0 0.061,0.003 0.092,0.014 0.11,0.041 0.188,0.151 0.191,0.279 0.143,4.198 -2.685,7.896 -6.581,8.604 -0.441,0.08 -0.891,0.118 -1.333,0.118 -1.356,0 -2.662,-0.381 -3.81,-1.058 -0.414,-0.245 -0.838,0.278 -0.557,0.682 2.124,3.042 9.078,3.93 10.537,3.588 0.113,-0.027 0.234,0.024 0.297,0.126 0.064,0.108 0.064,0.244 -0.006,0.347 -1.431,2.12 -3.756,3.39 -6.219,3.391 C 23.29,2.496 22.048,2.165 20.943,1.537 19.46,0.699 18.339,-0.609 17.657,-2.131 17.508,-2.467 17.063,-2.474 16.91,-2.139 16.101,-0.345 14.824,1.229 13.139,2.334 11.542,3.385 9.709,3.94 7.841,3.941 4.787,3.943 1.927,2.507 0,0"
             style="fill:#ffffff;fill-opacity:1;fill-rule:nonzero;stroke:none"
             id="path146"
             inkscape:connector-curvature="0" /></g><g
           id="g148"
           transform="translate(118.8027,355.2766)"
           style="fill:#ffffff"><path
             d="m 0,0 c -0.974,0 -1.76,-0.807 -1.76,-1.811 v -3.212 c 0,-1.261 -0.992,-2.29 -2.216,-2.29 H -4.625 V 9.479 c 0,1.005 -0.783,1.812 -1.758,1.812 -0.974,0 -1.76,-0.807 -1.76,-1.812 V -0.79 h -0.569 c -1.224,0 -2.216,1.03 -2.216,2.29 v 3.214 c 0,1.002 -0.785,1.811 -1.76,1.811 -0.974,0 -1.76,-0.809 -1.76,-1.811 V 1.49 c 0,-3.255 2.571,-5.911 5.736,-5.911 h 0.569 v -13.136 c 0,-1.003 0.786,-1.811 1.76,-1.811 0.975,0 1.758,0.808 1.758,1.811 v 6.622 h 0.649 c 3.165,0 5.736,2.653 5.736,5.912 v 3.212 C 1.76,-0.807 0.975,0 0,0"
             style="fill:#ffffff;fill-opacity:1;fill-rule:nonzero;stroke:none"
             id="path150"
             inkscape:connector-curvature="0" /></g><g
           id="g152"
           transform="translate(86.3962,333.086)"
           style="fill:#ffffff"><path
             d="m 0,0 c -0.535,0 -1.062,0.258 -1.391,0.738 -6.825,9.989 -18.837,10.183 -18.959,10.183 -0.933,0.007 -1.684,0.777 -1.678,1.72 0.006,0.941 0.762,1.699 1.689,1.699 h 0.011 C -19.763,14.337 -6.426,14.118 1.389,2.681 1.92,1.906 1.728,0.84 0.96,0.304 0.667,0.099 0.331,0 0,0"
             style="fill:#ffffff;fill-opacity:1;fill-rule:nonzero;stroke:none"
             id="path154"
             inkscape:connector-curvature="0" /></g><g
           id="g156"
           transform="translate(190.4664,349.2252)"
           style="fill:#ffffff"><path
             d="m 0,0 c 0.354,-0.079 0.745,-0.079 1.019,-0.079 2.906,0 5.534,2.412 5.534,10.385 0,5.95 -1.688,9.373 -5.338,9.373 -0.431,0 -0.861,-0.04 -1.215,-0.117 z m -4.16,22.518 c 1.215,0.311 2.903,0.505 4.709,0.505 3.062,0 5.259,-0.738 6.828,-2.177 2.161,-1.907 3.494,-5.328 3.494,-10.579 C 10.871,4.628 9.458,1.088 7.456,-0.856 5.689,-2.645 3.101,-3.5 -0.314,-3.5 c -1.453,0 -2.906,0.117 -3.846,0.271 z"
             style="fill:#ffffff;fill-opacity:1;fill-rule:nonzero;stroke:none"
             id="path158"
             inkscape:connector-curvature="0" /></g><g
           id="g160"
           transform="translate(215.2249,357.858)"
           style="fill:#ffffff"><path
             d="m 0,0 h -6.278 v -8.322 h 7.142 v -3.617 H -10.478 V 14.273 H 0.394 V 10.656 H -6.278 V 3.462 H 0 Z"
             style="fill:#ffffff;fill-opacity:1;fill-rule:nonzero;stroke:none"
             id="path162"
             inkscape:connector-curvature="0" /></g><g
           id="g164"
           transform="translate(223.6609,359.5315)"
           style="fill:#ffffff"><path
             d="m 0,0 c 0.314,-0.039 0.589,-0.039 1.019,-0.039 2.747,0 4.279,1.867 4.279,4.861 0,2.45 -1.022,4.511 -3.845,4.511 C 0.864,9.333 0.354,9.256 0,9.139 Z m -4.16,12.212 c 1.334,0.311 3.061,0.505 4.905,0.505 2.786,0 5.063,-0.505 6.595,-1.983 C 8.75,9.412 9.458,7.388 9.458,5.133 9.458,2.489 8.713,0.699 7.496,-0.7 5.964,-2.568 3.415,-3.423 1.178,-3.423 c -0.433,0 -0.787,0 -1.178,0.04 v -10.229 h -4.16 z"
             style="fill:#ffffff;fill-opacity:1;fill-rule:nonzero;stroke:none"
             id="path166"
             inkscape:connector-curvature="0" /></g><g
           id="g168"
           transform="translate(243.0814,355.992)"
           style="fill:#ffffff"><path
             d="m 0,0 -1.099,6.029 c -0.314,1.711 -0.665,4.121 -0.94,5.949 H -2.158 C -2.472,10.15 -2.866,7.623 -3.177,5.989 L -4.316,0 Z m -4.789,-3.267 -1.449,-6.806 h -4.044 l 5.887,26.212 H 0.47 L 5.927,-10.073 H 1.846 l -1.413,6.806 z"
             style="fill:#ffffff;fill-opacity:1;fill-rule:nonzero;stroke:none"
             id="path170"
             inkscape:connector-curvature="0" /></g><g
           id="g172"
           transform="translate(256.3059,359.9984)"
           style="fill:#ffffff"><path
             d="m 0,0 h 1.099 c 2.512,0 4.08,1.943 4.08,4.628 0,2.566 -1.059,4.317 -3.766,4.355 C 0.864,8.983 0.354,8.945 0,8.828 Z m -4.16,11.745 c 1.453,0.35 3.296,0.505 5.024,0.505 2.747,0 5.023,-0.467 6.553,-1.906 1.492,-1.399 2.002,-3.15 2.002,-5.328 0,-3.033 -1.493,-5.406 -4.16,-6.611 v -0.078 c 1.883,-0.661 2.826,-2.411 3.375,-5.523 0.55,-3.189 1.178,-5.989 1.609,-6.883 H 5.887 c -0.314,0.738 -0.903,3.306 -1.336,6.378 -0.51,3.422 -1.49,4.512 -3.611,4.512 H 0 v -10.89 h -4.16 z"
             style="fill:#ffffff;fill-opacity:1;fill-rule:nonzero;stroke:none"
             id="path174"
             inkscape:connector-curvature="0" /></g><g
           id="g176"
           transform="translate(272.1952,368.3205)"
           style="fill:#ffffff"><path
             d="M 0,0 H -4.749 V 3.811 H 8.949 V 0 H 4.2 V -22.401 H 0 Z"
             style="fill:#ffffff;fill-opacity:1;fill-rule:nonzero;stroke:none"
             id="path178"
             inkscape:connector-curvature="0" /></g><g
           id="g180"
           transform="translate(291.0295,355.992)"
           style="fill:#ffffff"><path
             d="m 0,0 -1.099,6.029 c -0.314,1.711 -0.665,4.121 -0.94,5.949 H -2.158 C -2.472,10.15 -2.866,7.623 -3.177,5.989 L -4.316,0 Z m -4.789,-3.267 -1.449,-6.806 h -4.044 l 5.887,26.212 H 0.47 L 5.927,-10.073 H 1.846 l -1.413,6.806 z"
             style="fill:#ffffff;fill-opacity:1;fill-rule:nonzero;stroke:none"
             id="path182"
             inkscape:connector-curvature="0" /></g><g
           id="g184"
           transform="translate(316.0259,356.0313)"
           style="fill:#ffffff"><path
             d="M 0,0 C -0.156,2.956 -0.314,6.533 -0.275,9.411 H -0.394 C -0.903,6.533 -1.608,3.383 -2.237,0.855 L -4.984,-9.801 H -7.85 l -2.591,10.383 c -0.705,2.645 -1.41,5.912 -1.883,8.829 h -0.116 c -0.04,-2.955 -0.198,-6.417 -0.354,-9.528 l -0.47,-9.995 h -3.65 L -15.15,16.1 h 4.434 L -8.164,5.483 c 0.824,-3.383 1.492,-6.145 2.002,-9.1 h 0.079 c 0.47,2.955 1.059,5.677 1.844,9.1 L -1.767,16.1 H 2.747 L 4.319,-10.112 H 0.51 Z"
             style="fill:#ffffff;fill-opacity:1;fill-rule:nonzero;stroke:none"
             id="path186"
             inkscape:connector-curvature="0" /></g><g
           id="g188"
           transform="translate(334.7385,357.858)"
           style="fill:#ffffff"><path
             d="m 0,0 h -6.278 v -8.322 h 7.142 v -3.617 H -10.478 V 14.273 H 0.394 V 10.656 H -6.278 V 3.462 H 0 Z"
             style="fill:#ffffff;fill-opacity:1;fill-rule:nonzero;stroke:none"
             id="path190"
             inkscape:connector-curvature="0" /></g><g
           id="g192"
           transform="translate(339.0145,345.9191)"
           style="fill:#ffffff"><path
             d="M 0,0 V 26.212 H 3.846 L 8.32,15.012 C 9.263,12.639 10.597,9.256 11.421,6.729 H 11.5 c -0.238,3.344 -0.473,7.388 -0.473,12.095 v 7.388 h 3.69 L 14.717,0 H 10.871 L 6.357,11.161 C 5.375,13.573 4.2,16.723 3.452,19.485 H 3.376 C 3.571,16.452 3.687,12.756 3.687,7.311 V 0 Z"
             style="fill:#ffffff;fill-opacity:1;fill-rule:nonzero;stroke:none"
             id="path194"
             inkscape:connector-curvature="0" /></g><g
           id="g196"
           transform="translate(361.3008,368.3205)"
           style="fill:#ffffff"><path
             d="M 0,0 H -4.749 V 3.811 H 8.949 V 0 H 4.2 V -22.401 H 0 Z"
             style="fill:#ffffff;fill-opacity:1;fill-rule:nonzero;stroke:none"
             id="path198"
             inkscape:connector-curvature="0" /></g><g
           id="g200"
           transform="translate(375.4655,359.0252)"
           style="fill:#ffffff"><path
             d="m 0,0 c 0,-5.716 1.102,-9.8 3.769,-9.8 2.707,0 3.571,4.705 3.571,9.956 0,4.745 -0.784,9.645 -3.611,9.645 C 1.102,9.801 0,5.484 0,0 m 11.698,0.35 c 0,-9.879 -3.494,-13.767 -8.164,-13.767 -5.259,0 -7.889,5.522 -7.889,13.456 0,7.856 2.982,13.379 8.32,13.379 5.533,0 7.733,-6.028 7.733,-13.068"
             style="fill:#ffffff;fill-opacity:1;fill-rule:nonzero;stroke:none"
             id="path202"
             inkscape:connector-curvature="0" /></g><g
           id="g204"
           transform="translate(402.9987,350.3311)"
           style="fill:#ffffff"><path
             d="m 0,0 c 0.354,-0.079 0.745,-0.079 1.019,-0.079 2.906,0 5.534,2.412 5.534,10.385 0,5.95 -1.688,9.373 -5.338,9.373 C 0.784,19.679 0.354,19.64 0,19.562 Z m -4.16,22.518 c 1.215,0.311 2.903,0.505 4.709,0.505 3.062,0 5.259,-0.738 6.828,-2.177 2.161,-1.907 3.494,-5.328 3.494,-10.579 C 10.871,4.628 9.458,1.088 7.456,-0.856 5.689,-2.645 3.101,-3.5 -0.314,-3.5 c -1.453,0 -2.906,0.117 -3.846,0.271 z"
             style="fill:#ffffff;fill-opacity:1;fill-rule:nonzero;stroke:none"
             id="path206"
             inkscape:connector-curvature="0" /></g><g
           id="g208"
           transform="translate(427.7571,358.964)"
           style="fill:#ffffff"><path
             d="m 0,0 h -6.278 v -8.322 h 7.142 v -3.617 H -10.478 V 14.273 H 0.394 V 10.656 H -6.278 V 3.462 H 0 Z"
             style="fill:#ffffff;fill-opacity:1;fill-rule:nonzero;stroke:none"
             id="path210"
             inkscape:connector-curvature="0" /></g><g
           id="g212"
           transform="translate(450.3946,347.4525)"
           style="fill:#ffffff"><path
             d="m 0,0 c -0.784,-0.388 -2.158,-0.661 -3.885,-0.661 -6.043,0 -9.498,4.901 -9.498,12.989 0,10.073 5.377,13.69 10.087,13.69 1.727,0 2.942,-0.35 3.455,-0.661 l -0.788,-3.539 c -0.626,0.312 -1.254,0.545 -2.511,0.545 -2.863,0 -5.809,-2.605 -5.809,-9.762 0,-7.039 2.671,-9.568 5.848,-9.568 0.983,0 1.963,0.196 2.591,0.467 z"
             style="fill:#ffffff;fill-opacity:1;fill-rule:nonzero;stroke:none"
             id="path214"
             inkscape:connector-curvature="0" /></g><path
           d="m 457.536,347.025 h -4.2 v 26.212 h 4.2 z"
           style="fill:#ffffff;fill-opacity:1;fill-rule:nonzero;stroke:none"
           id="path216"
           inkscape:connector-curvature="0" /><g
           id="g218"
           transform="translate(469.3847,378.6822)"
           style="fill:#ffffff"><path
             d="M 0,0 3.376,-4.044 H 0.119 l -1.767,2.061 H -1.727 L -3.455,-4.044 H -6.632 L -3.376,0 Z M 3.296,-19.718 H -2.982 V -28.04 H 4.16 v -3.617 H -7.181 V -5.445 H 3.69 v -3.617 h -6.672 v -7.194 h 6.278 z"
             style="fill:#ffffff;fill-opacity:1;fill-rule:nonzero;stroke:none"
             id="path220"
             inkscape:connector-curvature="0" /></g><g
           id="g222"
           transform="translate(476.9569,347.025)"
           style="fill:#ffffff"><path
             d="M 0,0 V 26.212 H 3.846 L 8.32,15.012 C 9.263,12.639 10.597,9.256 11.421,6.729 H 11.5 c -0.238,3.344 -0.473,7.388 -0.473,12.095 v 7.388 h 3.69 L 14.717,0 H 10.871 L 6.357,11.161 C 5.375,13.573 4.2,16.723 3.452,19.485 H 3.376 C 3.571,16.452 3.687,12.756 3.687,7.311 V 0 Z"
             style="fill:#ffffff;fill-opacity:1;fill-rule:nonzero;stroke:none"
             id="path224"
             inkscape:connector-curvature="0" /></g><g
           id="g226"
           transform="translate(508.4665,347.4525)"
           style="fill:#ffffff"><path
             d="m 0,0 c -0.784,-0.388 -2.158,-0.661 -3.885,-0.661 -6.043,0 -9.498,4.901 -9.498,12.989 0,10.073 5.377,13.69 10.087,13.69 1.727,0 2.942,-0.35 3.455,-0.661 l -0.788,-3.539 c -0.625,0.312 -1.254,0.545 -2.511,0.545 -2.863,0 -5.809,-2.605 -5.809,-9.762 0,-7.039 2.671,-9.568 5.848,-9.568 0.983,0 1.963,0.196 2.591,0.467 z"
             style="fill:#ffffff;fill-opacity:1;fill-rule:nonzero;stroke:none"
             id="path228"
             inkscape:connector-curvature="0" /></g><path
           d="m 515.605,347.025 h -4.2 v 26.212 h 4.2 z"
           style="fill:#ffffff;fill-opacity:1;fill-rule:nonzero;stroke:none"
           id="path230"
           inkscape:connector-curvature="0" /><g
           id="g232"
           transform="translate(528.7875,357.0979)"
           style="fill:#ffffff"><path
             d="m 0,0 -1.099,6.029 c -0.314,1.711 -0.665,4.121 -0.94,5.949 H -2.158 C -2.472,10.15 -2.866,7.623 -3.177,5.989 L -4.316,0 Z m -4.789,-3.267 -1.449,-6.806 h -4.044 l 5.887,26.212 H 0.47 L 5.927,-10.073 H 1.846 l -1.413,6.806 z"
             style="fill:#ffffff;fill-opacity:1;fill-rule:nonzero;stroke:none"
             id="path234"
             inkscape:connector-curvature="0" /></g><g
           id="g236"
           transform="translate(537.2631,351.4589)"
           style="fill:#ffffff"><path
             d="m 0,0 c 0.98,-0.584 2.707,-1.05 4.081,-1.05 2.591,0 4.004,1.477 4.004,3.656 0,2.099 -1.297,3.306 -3.455,4.782 -2.942,1.868 -4.984,4.474 -4.984,7.313 0,4.084 2.787,7.311 7.731,7.311 1.688,0 3.22,-0.505 3.925,-0.933 l -0.745,-3.578 c -0.745,0.466 -1.843,0.894 -3.257,0.894 -2.395,0 -3.534,-1.595 -3.534,-3.189 0,-2.023 1.062,-2.955 3.769,-4.666 3.336,-2.179 4.67,-4.707 4.67,-7.507 0,-4.705 -3.375,-7.7 -8.124,-7.7 -1.963,0 -3.965,0.544 -4.789,1.088 z"
             style="fill:#ffffff;fill-opacity:1;fill-rule:nonzero;stroke:none"
             id="path238"
             inkscape:connector-curvature="0" /></g><g
           id="g240"
           transform="translate(196.4523,318.7648)"
           style="fill:#ffffff"><path
             d="M 0,0 -1.084,6.029 C -1.395,7.74 -1.742,10.15 -2.013,11.978 H -2.131 C -2.439,10.15 -2.828,7.623 -3.136,5.989 L -4.259,0 Z m -4.724,-3.267 -1.434,-6.806 h -3.988 l 5.808,26.212 H 0.465 L 5.847,-10.073 H 1.82 l -1.394,6.806 z"
             style="fill:#ffffff;fill-opacity:1;fill-rule:nonzero;stroke:none"
             id="path242"
             inkscape:connector-curvature="0" /></g><g
           id="g244"
           transform="translate(206.2451,331.0933)"
           style="fill:#ffffff"><path
             d="M 0,0 H -4.685 V 3.811 H 8.83 V 0 H 4.145 V -22.401 H 0 Z"
             style="fill:#ffffff;fill-opacity:1;fill-rule:nonzero;stroke:none"
             id="path246"
             inkscape:connector-curvature="0" /></g><g
           id="g248"
           transform="translate(233.6971,318.8042)"
           style="fill:#ffffff"><path
             d="M 0,0 C -0.154,2.956 -0.308,6.533 -0.272,9.411 H -0.386 C -0.891,6.533 -1.588,3.383 -2.207,0.855 L -4.917,-9.801 H -7.743 L -10.3,0.582 c -0.697,2.645 -1.394,5.912 -1.859,8.829 h -0.115 c -0.039,-2.955 -0.196,-6.417 -0.35,-9.528 l -0.465,-9.995 h -3.601 l 1.742,26.212 h 4.377 L -8.054,5.483 c 0.812,-3.383 1.47,-6.145 1.974,-9.1 h 0.079 c 0.465,2.955 1.044,5.677 1.82,9.1 L -1.742,16.1 H 2.711 L 4.259,-10.112 H 0.504 Z"
             style="fill:#ffffff;fill-opacity:1;fill-rule:nonzero;stroke:none"
             id="path250"
             inkscape:connector-curvature="0" /></g><g
           id="g252"
           transform="translate(244.9238,321.7981)"
           style="fill:#ffffff"><path
             d="m 0,0 c 0,-5.716 1.084,-9.8 3.716,-9.8 2.672,0 3.526,4.705 3.526,9.956 0,4.745 -0.776,9.645 -3.562,9.645 C 1.084,9.801 0,5.484 0,0 m 11.54,0.35 c 0,-9.879 -3.447,-13.767 -8.056,-13.767 -5.189,0 -7.783,5.522 -7.783,13.456 0,7.856 2.944,13.379 8.208,13.379 5.461,0 7.631,-6.028 7.631,-13.068"
             style="fill:#ffffff;fill-opacity:1;fill-rule:nonzero;stroke:none"
             id="path254"
             inkscape:connector-curvature="0" /></g><g
           id="g256"
           transform="translate(259.2477,313.1258)"
           style="fill:#ffffff"><path
             d="m 0,0 c 0.966,-0.584 2.672,-1.05 4.027,-1.05 2.554,0 3.948,1.477 3.948,3.656 0,2.099 -1.277,3.306 -3.408,4.782 -2.904,1.868 -4.917,4.474 -4.917,7.313 0,4.084 2.75,7.311 7.628,7.311 1.666,0 3.176,-0.505 3.873,-0.933 l -0.736,-3.578 c -0.734,0.466 -1.818,0.894 -3.212,0.894 -2.364,0 -3.487,-1.595 -3.487,-3.189 0,-2.023 1.047,-2.955 3.719,-4.666 3.29,-2.179 4.607,-4.707 4.607,-7.507 0,-4.705 -3.33,-7.7 -8.015,-7.7 -1.938,0 -3.912,0.544 -4.724,1.088 z"
             style="fill:#ffffff;fill-opacity:1;fill-rule:nonzero;stroke:none"
             id="path258"
             inkscape:connector-curvature="0" /></g><g
           id="g260"
           transform="translate(274.5013,334.9042)"
           style="fill:#ffffff"><path
             d="m 0,0 h 10.725 v -3.617 h -6.58 v -7.817 H 10.3 v -3.461 H 4.145 V -26.212 H 0 Z"
             style="fill:#ffffff;fill-opacity:1;fill-rule:nonzero;stroke:none"
             id="path262"
             inkscape:connector-curvature="0" /></g><g
           id="g264"
           transform="translate(300.2114,340.6219)"
           style="fill:#ffffff"><path
             d="M 0,0 -4.763,-4.317 H -7.824 L -4.416,0 Z m -1.008,-19.991 h -6.195 v -8.322 h 7.046 v -3.617 h -11.19 v 26.212 h 10.725 v -3.617 h -6.581 v -7.194 h 6.195 z"
             style="fill:#ffffff;fill-opacity:1;fill-rule:nonzero;stroke:none"
             id="path266"
             inkscape:connector-curvature="0" /></g><g
           id="g268"
           transform="translate(307.526,322.7712)"
           style="fill:#ffffff"><path
             d="M 0,0 H 1.087 C 3.565,0 5.113,1.943 5.113,4.628 5.113,7.194 4.066,8.945 1.395,8.983 0.854,8.983 0.35,8.945 0,8.828 Z m -4.103,11.745 c 1.431,0.35 3.252,0.505 4.957,0.505 2.711,0 4.957,-0.467 6.466,-1.906 1.47,-1.399 1.974,-3.15 1.974,-5.328 0,-3.033 -1.47,-5.406 -4.105,-6.611 v -0.078 c 1.86,-0.661 2.789,-2.411 3.333,-5.523 0.54,-3.189 1.159,-5.989 1.587,-6.883 H 5.811 C 5.5,-13.341 4.92,-10.773 4.492,-7.701 3.991,-4.279 3.022,-3.189 0.93,-3.189 H 0 v -10.89 h -4.103 z"
             style="fill:#ffffff;fill-opacity:1;fill-rule:nonzero;stroke:none"
             id="path270"
             inkscape:connector-curvature="0" /></g><path
           d="m 324.717,308.692 h -4.145 v 26.212 h 4.145 z"
           style="fill:#ffffff;fill-opacity:1;fill-rule:nonzero;stroke:none"
           id="path272"
           inkscape:connector-curvature="0" /><g
           id="g274"
           transform="translate(341.3264,309.1194)"
           style="fill:#ffffff"><path
             d="m 0,0 c -0.773,-0.388 -2.128,-0.661 -3.834,-0.661 -5.962,0 -9.37,4.901 -9.37,12.989 0,10.073 5.304,13.69 9.953,13.69 1.702,0 2.904,-0.35 3.408,-0.661 l -0.776,-3.539 c -0.619,0.312 -1.238,0.545 -2.478,0.545 -2.826,0 -5.73,-2.605 -5.73,-9.762 0,-7.039 2.633,-9.568 5.769,-9.568 0.969,0 1.935,0.196 2.557,0.467 z"
             style="fill:#ffffff;fill-opacity:1;fill-rule:nonzero;stroke:none"
             id="path276"
             inkscape:connector-curvature="0" /></g><g
           id="g278"
           transform="translate(353.0179,318.7648)"
           style="fill:#ffffff"><path
             d="M 0,0 -1.084,6.029 C -1.395,7.74 -1.742,10.15 -2.013,11.978 H -2.128 C -2.439,10.15 -2.826,7.623 -3.136,5.989 L -4.259,0 Z m -4.724,-3.267 -1.431,-6.806 h -3.991 l 5.811,26.212 h 4.8 L 5.847,-10.073 H 1.82 l -1.394,6.806 z"
             style="fill:#ffffff;fill-opacity:1;fill-rule:nonzero;stroke:none"
             id="path280"
             inkscape:connector-curvature="0" /></g><g
           id="g282"
           transform="translate(361.3799,313.1258)"
           style="fill:#ffffff"><path
             d="m 0,0 c 0.969,-0.584 2.672,-1.05 4.027,-1.05 2.557,0 3.951,1.477 3.951,3.656 0,2.099 -1.28,3.306 -3.408,4.782 -2.904,1.868 -4.917,4.474 -4.917,7.313 0,4.084 2.75,7.311 7.628,7.311 1.663,0 3.176,-0.505 3.873,-0.933 l -0.737,-3.578 c -0.736,0.466 -1.82,0.894 -3.214,0.894 -2.361,0 -3.484,-1.595 -3.484,-3.189 0,-2.023 1.044,-2.955 3.716,-4.666 3.293,-2.179 4.609,-4.707 4.609,-7.507 0,-4.705 -3.329,-7.7 -8.017,-7.7 -1.935,0 -3.909,0.544 -4.724,1.088 z"
             style="fill:#ffffff;fill-opacity:1;fill-rule:nonzero;stroke:none"
             id="path284"
             inkscape:connector-curvature="0" /></g><g
           id="g286"
           transform="translate(395.7085,320.5922)"
           style="fill:#ffffff"><path
             d="m 0,0 h -6.197 v -8.322 h 7.048 v -3.617 h -11.19 V 14.273 H 0.386 V 10.656 H -6.197 V 3.462 H 0 Z"
             style="fill:#ffffff;fill-opacity:1;fill-rule:nonzero;stroke:none"
             id="path288"
             inkscape:connector-curvature="0" /></g><g
           id="g290"
           transform="translate(418.047,309.0807)"
           style="fill:#ffffff"><path
             d="m 0,0 c -0.776,-0.388 -2.131,-0.661 -3.834,-0.661 -5.964,0 -9.373,4.901 -9.373,12.989 0,10.073 5.307,13.69 9.953,13.69 1.705,0 2.904,-0.35 3.408,-0.661 l -0.773,-3.539 c -0.622,0.312 -1.24,0.545 -2.478,0.545 -2.829,0 -5.733,-2.605 -5.733,-9.762 0,-7.039 2.633,-9.568 5.769,-9.568 0.969,0 1.938,0.196 2.557,0.467 z"
             style="fill:#ffffff;fill-opacity:1;fill-rule:nonzero;stroke:none"
             id="path292"
             inkscape:connector-curvature="0" /></g><g
           id="g294"
           transform="translate(420.9482,334.8655)"
           style="fill:#ffffff"><path
             d="m 0,0 h 4.145 v -22.712 h 6.97 v -3.5 H 0 Z"
             style="fill:#ffffff;fill-opacity:1;fill-rule:nonzero;stroke:none"
             id="path296"
             inkscape:connector-curvature="0" /></g><path
           d="m 439.184,308.653 h -4.142 v 26.212 h 4.142 z"
           style="fill:#ffffff;fill-opacity:1;fill-rule:nonzero;stroke:none"
           id="path298"
           inkscape:connector-curvature="0" /><g
           id="g300"
           transform="translate(459.6689,318.7655)"
           style="fill:#ffffff"><path
             d="M 0,0 C -0.157,2.956 -0.311,6.533 -0.272,9.411 H -0.389 C -0.891,6.533 -1.588,3.383 -2.21,0.855 L -4.92,-9.801 H -7.746 L -10.303,0.582 C -11,3.227 -11.694,6.494 -12.159,9.411 h -0.118 c -0.039,-2.955 -0.193,-6.417 -0.347,-9.528 l -0.465,-9.995 h -3.601 l 1.742,26.212 h 4.377 L -8.057,5.483 c 0.815,-3.383 1.473,-6.145 1.977,-9.1 h 0.076 c 0.465,2.955 1.047,5.677 1.82,9.1 L -1.745,16.1 H 2.711 L 4.259,-10.112 H 0.501 Z"
             style="fill:#ffffff;fill-opacity:1;fill-rule:nonzero;stroke:none"
             id="path302"
             inkscape:connector-curvature="0" /></g><g
           id="g304"
           transform="translate(479.8007,340.5833)"
           style="fill:#ffffff"><path
             d="M 0,0 -4.763,-4.317 H -7.824 L -4.416,0 Z m -3.758,-21.857 -1.084,6.028 c -0.311,1.712 -0.658,4.122 -0.93,5.95 h -0.114 c -0.311,-1.828 -0.698,-4.355 -1.009,-5.989 l -1.122,-5.989 z m -4.724,-3.267 -1.431,-6.806 h -3.991 l 5.811,26.212 h 4.8 L 2.089,-31.93 h -4.027 l -1.394,6.806 z"
             style="fill:#ffffff;fill-opacity:1;fill-rule:nonzero;stroke:none"
             id="path306"
             inkscape:connector-curvature="0" /></g><g
           id="g308"
           transform="translate(485.8383,331.0546)"
           style="fill:#ffffff"><path
             d="M 0,0 H -4.685 V 3.811 H 8.83 V 0 H 4.142 V -22.401 H 0 Z"
             style="fill:#ffffff;fill-opacity:1;fill-rule:nonzero;stroke:none"
             id="path310"
             inkscape:connector-curvature="0" /></g><path
           d="m 501.632,308.653 h -4.142 v 26.212 h 4.142 z"
           style="fill:#ffffff;fill-opacity:1;fill-rule:nonzero;stroke:none"
           id="path312"
           inkscape:connector-curvature="0" /><g
           id="g314"
           transform="translate(518.2441,309.0807)"
           style="fill:#ffffff"><path
             d="m 0,0 c -0.776,-0.388 -2.131,-0.661 -3.834,-0.661 -5.964,0 -9.373,4.901 -9.373,12.989 0,10.073 5.307,13.69 9.953,13.69 1.705,0 2.904,-0.35 3.408,-0.661 l -0.773,-3.539 c -0.622,0.312 -1.24,0.545 -2.478,0.545 -2.829,0 -5.733,-2.605 -5.733,-9.762 0,-7.039 2.633,-9.568 5.769,-9.568 0.969,0 1.938,0.196 2.557,0.467 z"
             style="fill:#ffffff;fill-opacity:1;fill-rule:nonzero;stroke:none"
             id="path316"
             inkscape:connector-curvature="0" /></g><g
           id="g318"
           transform="translate(529.9749,318.7261)"
           style="fill:#ffffff"><path
             d="M 0,0 -1.084,6.029 C -1.395,7.74 -1.742,10.15 -2.013,11.978 H -2.131 C -2.439,10.15 -2.828,7.623 -3.136,5.989 L -4.259,0 Z m -4.724,-3.267 -1.434,-6.806 h -3.988 l 5.808,26.212 H 0.465 L 5.847,-10.073 H 1.82 l -1.394,6.806 z"
             style="fill:#ffffff;fill-opacity:1;fill-rule:nonzero;stroke:none"
             id="path320"
             inkscape:connector-curvature="0" /></g><g
           id="g322"
           transform="translate(538.3367,313.0871)"
           style="fill:#ffffff"><path
             d="m 0,0 c 0.966,-0.584 2.672,-1.05 4.027,-1.05 2.554,0 3.948,1.477 3.948,3.656 0,2.099 -1.277,3.306 -3.408,4.782 -2.904,1.868 -4.917,4.474 -4.917,7.313 0,4.084 2.75,7.311 7.628,7.311 1.666,0 3.176,-0.505 3.873,-0.933 l -0.736,-3.578 c -0.734,0.466 -1.818,0.894 -3.212,0.894 -2.364,0 -3.487,-1.595 -3.487,-3.189 0,-2.023 1.047,-2.955 3.719,-4.666 3.29,-2.179 4.607,-4.707 4.607,-7.507 0,-4.705 -3.33,-7.7 -8.015,-7.7 -1.938,0 -3.912,0.544 -4.724,1.088 z"
             style="fill:#ffffff;fill-opacity:1;fill-rule:nonzero;stroke:none"
             id="path324"
             inkscape:connector-curvature="0" /></g></g></g></g></svg>